<?xml version="1.0" standalone="no"?>
<!DOCTYPE svg PUBLIC "-//W3C//DTD SVG 20010904//EN"
 "http://www.w3.org/TR/2001/REC-SVG-20010904/DTD/svg10.dtd">
<svg version="1.0" xmlns="http://www.w3.org/2000/svg"
 width="640.000000pt" height="640.000000pt" viewBox="0 0 640.000000 640.000000"
 preserveAspectRatio="xMidYMid meet">

<g transform="translate(0.000000,640.000000) scale(0.100000,-0.100000)"
fill="#000000" stroke="none">
<path d="M1837 6353 c-3 -27 -10 -66 -15 -88 -44 -174 -62 -238 -76 -266 -9
-18 -16 -40 -16 -50 0 -9 -12 -50 -26 -91 -14 -40 -30 -93 -35 -118 -18 -90
-30 -156 -38 -214 -11 -68 -44 -110 -128 -158 -28 -16 -57 -36 -63 -43 -7 -8
-17 -15 -23 -15 -6 0 -20 -9 -31 -19 -12 -10 -37 -28 -56 -38 -19 -11 -61 -34
-94 -52 -54 -31 -177 -80 -253 -102 -42 -13 -42 -25 -1 -34 18 -4 39 -11 48
-15 56 -29 261 -104 339 -124 114 -30 125 -39 113 -92 -37 -154 -76 -238 -173
-380 -44 -63 -58 -94 -44 -94 2 0 28 13 57 28 57 30 156 75 281 128 54 22 79
29 82 21 3 -7 14 -69 25 -139 26 -168 26 -241 -2 -309 -27 -65 -90 -189 -112
-220 -24 -35 -22 -169 5 -250 43 -131 137 -268 204 -298 17 -7 38 -17 47 -22
10 -5 43 -9 73 -9 30 0 55 -4 55 -10 0 -21 -187 -280 -202 -280 -5 0 -8 -4 -8
-9 0 -12 -57 -70 -98 -99 -21 -14 -40 -21 -52 -17 -11 3 -41 36 -67 73 -91
128 -118 159 -184 212 -68 55 -104 69 -222 90 -53 10 -85 10 -150 0 -158 -24
-222 -58 -348 -182 -232 -227 -347 -475 -337 -728 4 -88 7 -101 47 -180 58
-117 109 -157 268 -214 37 -13 105 -38 151 -55 142 -53 237 -39 260 36 27 85
56 112 246 232 47 30 86 57 86 61 0 15 -13 17 -38 5 -15 -8 -79 -23 -142 -34
-63 -11 -146 -32 -185 -47 -157 -58 -200 -65 -279 -42 -79 22 -120 79 -156
214 -24 88 -22 129 11 294 23 112 34 151 60 207 10 24 19 48 19 54 0 6 8 23
18 37 10 15 27 44 37 65 41 79 117 168 169 197 50 29 128 41 140 21 3 -4 23
-11 43 -14 21 -4 65 -24 98 -46 100 -65 169 -145 244 -282 30 -54 110 -139
133 -139 10 0 29 -5 41 -11 31 -17 198 7 257 36 65 33 210 195 210 236 0 6 8
26 19 43 10 17 24 52 32 79 14 51 34 61 48 25 5 -13 23 -57 39 -98 17 -41 35
-94 42 -117 6 -24 15 -43 20 -43 12 0 42 56 49 94 13 59 32 41 129 -123 39
-65 100 -147 137 -181 14 -13 25 -31 25 -40 0 -35 -50 -109 -127 -186 -43 -43
-86 -92 -94 -109 -9 -16 -21 -41 -29 -55 -7 -14 -18 -34 -23 -45 -6 -11 -12
-58 -14 -104 -3 -93 -5 -96 -68 -106 -39 -7 -157 -36 -221 -56 -17 -5 -37 -9
-45 -9 -27 0 -114 -47 -151 -82 -19 -18 -49 -44 -65 -58 -31 -26 -76 -145
-105 -274 -15 -66 -25 -74 -143 -104 -83 -20 -101 -31 -175 -104 -59 -57 -136
-168 -180 -258 -42 -86 -60 -132 -60 -153 0 -13 -4 -27 -9 -32 -12 -15 -49
-170 -58 -250 -2 -22 -13 -85 -24 -140 -10 -55 -19 -127 -19 -160 0 -33 -4
-75 -9 -92 -5 -18 -13 -77 -16 -133 l-8 -100 39 0 39 1 80 162 c187 380 309
490 528 474 199 -15 285 -25 304 -35 11 -6 36 -30 56 -54 19 -24 48 -57 64
-74 15 -17 35 -43 43 -56 8 -14 37 -43 64 -63 158 -120 290 -154 385 -100 23
14 45 25 47 25 2 0 9 -18 15 -41 12 -37 10 -45 -11 -84 -22 -41 -23 -47 -11
-99 l12 -56 45 0 c41 0 44 2 44 26 0 14 -5 35 -11 46 -8 16 -7 27 7 53 15 29
16 38 4 81 -7 27 -16 69 -21 94 -4 25 -17 87 -28 139 -29 130 -29 135 12 127
40 -9 137 -24 197 -31 25 -3 75 -10 113 -17 48 -8 73 -8 90 0 12 6 36 13 52
15 l30 6 -6 -92 c-4 -75 -2 -100 12 -135 13 -31 16 -49 9 -67 -10 -27 -4 -67
27 -175 l18 -65 49 -3 c61 -4 61 -14 -15 176 -12 28 -11 36 5 66 18 34 18 34
-9 84 -28 51 -29 75 -9 170 9 45 34 53 137 42 96 -10 122 -22 137 -65 7 -16
18 -44 27 -62 11 -22 14 -45 9 -74 -6 -37 -3 -47 24 -80 29 -36 31 -44 33
-132 1 -62 7 -100 16 -110 11 -14 34 -17 138 -17 80 0 122 4 118 10 -3 6 -15
10 -25 10 -30 0 -110 30 -153 57 -35 22 -39 28 -33 56 3 17 8 32 10 34 2 2 19
-5 37 -16 19 -12 42 -21 51 -21 28 0 10 29 -55 92 -57 54 -59 58 -53 93 6 28
1 48 -18 90 -15 29 -26 58 -26 63 0 5 -7 23 -15 38 -27 52 -21 62 43 70 66 8
137 30 242 74 147 63 140 61 145 47 2 -6 5 -87 7 -178 3 -154 2 -165 -15 -167
-28 -2 -43 -18 -77 -84 -35 -67 -35 -103 0 -148 17 -22 22 -23 39 -12 12 6 27
12 34 12 23 0 33 41 32 133 l-1 87 23 -24 c15 -16 23 -38 23 -59 0 -19 7 -40
15 -47 8 -7 15 -18 15 -25 0 -22 -108 -122 -155 -144 -25 -12 -45 -25 -45 -31
0 -5 46 -9 110 -9 l110 1 0 26 c0 15 16 49 35 76 41 58 43 73 13 111 -16 20
-21 39 -19 69 1 29 -6 58 -24 93 -23 47 -26 67 -32 212 -7 186 -3 202 65 258
97 79 164 116 306 167 108 39 107 39 204 -5 35 -16 66 -29 68 -29 11 0 179
-103 232 -142 65 -48 209 -192 496 -497 224 -239 316 -321 316 -282 0 5 -8 29
-19 53 -10 24 -26 98 -35 163 -10 66 -25 163 -36 215 -10 52 -21 129 -24 170
-18 228 -26 292 -45 334 -12 24 -24 46 -29 48 -4 1 -32 39 -61 83 -29 43 -64
93 -77 110 -14 16 -53 68 -87 115 -199 271 -280 367 -326 386 -28 12 -73 15
-206 14 -237 -2 -225 -3 -225 20 0 17 -17 61 -54 140 -9 20 -21 26 -60 31 -44
5 -65 19 -66 45 0 6 -28 14 -66 18 -73 8 -191 42 -214 62 -12 12 -12 26 -2 98
l12 84 -42 68 c-47 78 -87 211 -88 291 0 52 0 53 58 95 31 24 82 59 112 79 30
20 67 48 82 62 25 23 26 28 16 64 -10 37 -1 125 22 193 4 14 13 45 20 70 11
39 24 72 60 150 11 23 51 40 98 40 28 0 70 12 120 36 106 49 253 87 317 81 95
-9 240 -73 299 -132 50 -51 -18 -266 -130 -409 -39 -50 -165 -146 -191 -146
-15 0 -60 -44 -82 -80 -16 -27 -21 -51 -20 -105 1 -136 43 -321 93 -412 15
-25 26 -56 26 -69 0 -13 5 -24 10 -24 13 0 13 38 -2 116 -11 63 0 181 21 222
5 9 19 39 31 66 29 67 120 177 169 204 51 29 88 73 96 114 3 18 12 56 20 83 7
28 19 77 26 110 13 61 31 109 74 200 75 155 81 195 46 268 -26 54 -54 77 -92
77 -20 0 -33 11 -57 48 -63 94 -77 104 -170 119 -47 8 -146 -14 -212 -47 -96
-47 -212 -83 -270 -84 -48 -1 -55 1 -55 19 0 11 10 24 21 30 38 19 51 34 69
83 9 26 24 63 33 82 32 72 53 178 59 297 5 111 4 128 -17 185 -12 35 -27 69
-32 75 -18 22 -70 43 -109 43 -21 0 -40 4 -43 9 -3 4 1 39 10 77 9 38 19 88
23 112 4 23 11 45 14 49 4 3 30 -4 59 -16 29 -12 84 -26 123 -31 167 -22 253
-28 295 -20 25 4 35 8 23 9 -13 0 -23 5 -23 10 0 5 -10 11 -22 15 -30 7 -106
79 -150 141 -52 74 -128 202 -128 216 0 13 -15 65 -31 107 -12 32 3 57 54 89
59 37 216 201 277 289 l51 74 -30 0 c-16 0 -33 -4 -36 -10 -22 -36 -375 30
-375 70 0 4 26 29 58 56 31 26 73 64 93 84 20 19 52 48 72 63 21 15 37 33 37
40 0 7 15 22 33 35 l32 22 -87 0 c-48 0 -99 5 -115 11 -15 7 -48 16 -73 20
-25 4 -67 13 -95 19 -27 6 -62 13 -78 17 -15 3 -30 9 -33 14 -3 5 -17 9 -32 9
-15 0 -59 12 -97 26 -39 14 -86 30 -105 34 -19 5 -78 22 -130 39 -51 17 -104
31 -115 31 -30 0 -85 29 -85 44 0 7 10 28 23 47 12 19 29 48 37 64 8 17 22 41
31 55 9 14 20 35 23 48 6 19 4 22 -17 22 -19 0 -29 -9 -41 -37 -16 -37 -76
-138 -94 -158 -5 -6 -12 -23 -15 -37 -4 -15 -13 -33 -20 -40 -37 -38 -20 -62
33 -47 37 10 82 10 76 0 -8 -13 46 -23 78 -15 28 7 56 -2 151 -46 67 -32 93
-39 320 -90 116 -26 197 -38 313 -46 69 -5 81 -8 71 -20 -6 -8 -20 -14 -30
-14 -10 0 -22 -6 -26 -13 -4 -7 -48 -46 -98 -86 -49 -40 -108 -89 -130 -108
-22 -20 -53 -41 -68 -48 l-29 -12 49 -13 c26 -7 52 -17 57 -21 6 -5 18 -9 27
-9 9 0 36 -11 60 -24 55 -31 147 -48 189 -36 64 18 78 -12 31 -66 -16 -18 -33
-39 -38 -46 -14 -23 -176 -168 -187 -168 -6 -1 -26 -14 -45 -30 l-34 -29 27
-83 c24 -72 43 -112 103 -213 6 -11 19 -34 28 -51 9 -17 25 -41 35 -52 11 -12
20 -25 20 -29 0 -4 14 -21 31 -39 30 -31 30 -32 10 -39 -27 -8 -99 3 -126 20
-11 7 -36 16 -55 20 -19 4 -63 21 -97 37 -52 24 -63 34 -63 53 0 14 -9 39 -20
57 l-20 33 0 -32 c0 -32 -27 -160 -37 -176 -8 -14 -32 33 -33 64 0 15 -7 32
-15 39 -8 7 -15 19 -15 28 0 8 -14 45 -31 81 -74 158 -77 166 -72 201 l4 35
-20 -25 c-11 -14 -21 -30 -21 -37 0 -15 -47 -103 -66 -122 -11 -12 -12 -9 -7
23 8 48 -18 257 -28 230 -4 -10 -8 -34 -8 -52 -1 -37 -17 -39 -35 -6 -12 21
-60 82 -100 128 -19 21 -26 25 -26 13 0 -25 -12 -21 -79 23 -33 22 -70 40 -82
40 -11 0 -67 15 -123 34 -126 42 -166 51 -346 76 -195 27 -418 27 -555 -1 -55
-11 -127 -24 -160 -29 -78 -12 -180 -41 -278 -78 -43 -17 -97 -34 -119 -37
-41 -7 -41 -7 -35 21 4 16 9 45 12 64 l6 35 -19 -40 c-11 -22 -28 -67 -37
-100 -10 -33 -23 -73 -30 -90 -42 -99 -87 -373 -84 -518 3 -150 -10 -155 -54
-20 -20 59 -41 136 -46 171 -6 34 -15 88 -21 120 -5 32 -10 68 -10 81 0 14 -4
20 -11 15 -8 -4 -9 -25 -5 -61 5 -44 2 -63 -18 -107 -14 -30 -28 -71 -31 -92
-10 -62 -47 -184 -55 -184 -21 0 -44 103 -69 300 l-6 55 -7 -59 c-4 -35 -3
-67 3 -78 18 -33 1 -75 -39 -100 -20 -12 -44 -30 -52 -40 -23 -25 -227 -135
-236 -126 -3 3 24 66 59 139 37 78 70 161 77 199 7 36 17 73 23 84 14 27 -2
33 -120 41 -60 4 -126 15 -156 26 -28 10 -60 19 -69 19 -10 0 -26 4 -36 9 -9
5 -38 15 -64 22 -55 13 -62 34 -15 43 53 10 304 145 397 213 25 18 67 44 93
57 64 32 76 50 77 116 0 116 63 422 110 540 9 25 23 63 29 85 7 22 16 49 21
60 9 23 50 195 50 213 0 7 -14 12 -34 12 -33 0 -34 -1 -39 -47z m1612 -1084
c65 -10 143 -32 173 -49 10 -6 23 -10 30 -10 36 0 199 -74 221 -100 32 -37 41
-130 26 -251 -14 -106 -25 -116 -106 -98 -27 5 -84 14 -128 19 -44 4 -116 13
-160 19 -128 16 -289 18 -450 4 -228 -19 -325 -30 -380 -41 -27 -6 -80 -13
-117 -17 -59 -5 -67 -4 -72 12 -8 26 -15 281 -9 326 3 21 11 37 18 37 8 0 16
14 20 30 4 17 7 30 8 30 1 0 27 9 57 20 97 36 293 69 419 71 36 0 89 4 116 8
60 9 245 4 334 -10z m184 -568 c6 -6 29 -11 50 -11 30 0 40 -4 44 -20 4 -15 9
-17 23 -10 56 30 357 -25 385 -70 9 -15 -5 -116 -19 -135 -10 -14 -20 -11 -86
22 -70 36 -80 38 -166 38 -83 0 -95 -3 -155 -34 -94 -48 -229 -156 -229 -182
0 -5 7 -9 15 -9 8 0 15 4 15 9 0 5 26 19 58 31 31 12 73 28 92 37 19 8 81 20
137 26 152 16 303 -11 303 -53 0 -5 -4 -12 -10 -15 -5 -3 -10 -13 -10 -21 0
-13 2 -13 13 -2 7 7 16 21 20 31 8 22 57 24 57 1 0 -22 44 -14 48 9 2 9 -3 17
-11 17 -7 0 -24 11 -37 25 -22 23 -23 28 -11 72 6 27 15 62 19 78 10 41 36 42
114 6 36 -17 69 -31 75 -31 18 0 123 -81 123 -95 0 -7 -6 -26 -14 -42 -13 -27
-43 -91 -99 -213 -14 -30 -28 -70 -32 -89 -4 -19 -18 -57 -31 -85 -13 -28 -24
-58 -24 -66 0 -8 -9 -28 -21 -45 l-20 -30 6 180 c3 99 7 198 8 220 2 22 0 49
-4 60 -5 13 -8 -4 -8 -46 -1 -37 -8 -84 -17 -104 -20 -50 -11 -265 17 -377 22
-87 27 -243 10 -276 -14 -26 -14 -62 -1 -62 6 0 10 9 10 19 0 11 5 23 10 26 6
3 10 24 10 46 0 24 4 38 10 34 6 -3 10 -17 10 -30 0 -30 -19 -113 -31 -137 -5
-10 -9 -27 -9 -37 0 -11 -4 -22 -9 -25 -10 -7 -20 26 -21 69 -1 28 -2 29 -10
7 -14 -33 -157 -169 -186 -176 -14 -4 -47 -21 -72 -39 -26 -18 -67 -40 -92
-51 -25 -10 -54 -22 -65 -27 -11 -5 -63 -23 -115 -40 -81 -28 -108 -32 -183
-31 -76 2 -93 6 -124 27 -20 13 -41 21 -47 17 -6 -3 -45 -7 -86 -8 -97 -2
-127 -11 -230 -69 -94 -52 -134 -59 -210 -36 -93 27 -93 28 -86 69 16 97 25
141 40 182 9 25 16 53 16 63 0 9 4 25 9 35 14 27 31 87 31 108 0 10 12 51 26
89 36 99 39 115 22 115 -8 0 -23 -9 -33 -20 -10 -11 -22 -20 -27 -20 -4 0 -16
-8 -26 -17 -61 -58 -284 -226 -328 -248 -18 -8 -34 -22 -38 -30 -3 -8 -16 -20
-28 -25 -13 -6 -38 -22 -57 -35 -49 -36 -97 -33 -149 7 -23 18 -42 39 -43 48
-4 56 4 87 29 108 l27 23 -25 -3 c-24 -3 -25 -1 -31 72 -3 41 -13 106 -23 144
-15 60 -15 126 1 126 2 0 24 -16 48 -35 54 -45 154 -83 166 -63 5 7 7 19 4 26
-3 9 19 12 88 13 51 1 108 3 127 4 53 3 170 68 170 93 0 4 -4 13 -9 20 -6 11
-16 6 -42 -20 -42 -40 -72 -58 -101 -58 -12 0 -36 -5 -53 -11 -43 -16 -109 -4
-101 18 5 12 2 13 -11 8 -51 -22 -80 -18 -117 19 -20 20 -36 43 -36 51 0 8
-18 54 -40 101 -46 99 -48 109 -19 94 11 -6 27 -10 36 -8 13 3 13 6 -4 27 -32
40 -19 63 55 98 91 42 118 50 255 72 105 17 124 17 183 5 36 -8 70 -17 75 -20
5 -3 17 -1 26 5 15 8 11 13 -28 29 -26 11 -50 25 -53 31 -4 6 -15 11 -26 11
-10 0 -40 20 -68 45 -27 25 -55 45 -62 45 -6 0 -10 6 -7 13 2 7 21 12 46 11
22 0 41 3 41 7 0 54 -410 -7 -457 -69 -24 -30 -13 -31 60 -8 99 33 160 46 210
46 l42 0 -59 -30 c-32 -17 -64 -30 -71 -30 -7 0 -44 -13 -84 -29 -39 -17 -71
-27 -71 -23 -1 4 -8 -5 -16 -20 -21 -39 -41 -35 -48 10 -16 91 -28 221 -23
243 7 29 65 48 112 38 50 -11 247 -10 240 1 -3 6 -46 10 -95 10 -124 0 -128
17 -14 56 51 17 100 10 151 -23 13 -9 25 -14 28 -12 7 8 -10 24 -37 36 -16 7
-28 17 -28 21 0 15 177 50 305 61 66 6 154 17 195 25 59 12 132 15 344 11 170
-2 273 -8 279 -14z m-1499 -244 c-11 -52 -6 -161 10 -208 9 -24 16 -54 16 -67
0 -12 11 -40 25 -62 23 -37 24 -41 8 -47 -20 -8 -83 59 -83 89 0 10 -4 18 -10
18 -20 0 -9 -47 31 -125 23 -44 52 -101 65 -126 13 -26 24 -52 24 -58 0 -6 4
-19 9 -29 5 -9 15 -30 22 -47 7 -16 21 -42 31 -57 10 -14 18 -31 18 -37 0 -10
-147 86 -195 127 -24 21 -95 55 -101 49 -2 -2 18 -18 45 -34 l49 -31 -2 -109
c-2 -59 1 -123 6 -141 5 -18 8 -49 6 -70 l-3 -37 -17 37 c-9 21 -30 57 -46 80
-28 41 -50 79 -114 202 -15 28 -27 61 -28 74 0 12 -4 22 -10 22 -16 0 -11 -45
9 -87 11 -21 38 -76 61 -123 56 -113 99 -191 117 -212 23 -26 12 -49 -32 -64
-56 -19 -121 -17 -183 5 -53 20 -67 28 -107 66 -49 46 -103 194 -119 323 l-7
54 50 50 c27 27 55 47 60 43 20 -12 12 -69 -15 -100 -21 -24 -24 -36 -19 -67
16 -93 63 -177 101 -178 6 0 18 17 25 37 l14 36 29 -26 c16 -15 32 -25 35 -21
5 5 -26 35 -75 74 -8 6 -14 2 -18 -13 -3 -14 -9 -18 -15 -12 -10 11 -18 72
-27 208 -6 87 -6 87 25 122 30 35 39 55 24 55 -5 0 -20 -14 -35 -32 -31 -38
-53 -30 -35 12 26 63 37 97 37 122 0 15 12 59 26 98 24 63 35 79 93 128 36 31
90 72 119 91 50 32 54 33 66 16 12 -17 13 -17 19 5 9 35 29 14 21 -23z m2495
-140 c41 -21 54 -76 47 -212 -3 -66 -10 -149 -17 -185 -12 -72 -59 -182 -92
-219 -28 -30 -175 -98 -231 -106 -51 -8 -51 -8 -55 95 -1 41 -7 80 -13 87 -7
8 -4 20 9 37 22 31 29 32 38 4 l8 -23 4 23 c3 13 0 36 -7 51 -8 21 -7 40 6 87
9 32 19 72 21 87 5 25 9 28 32 24 22 -5 32 1 54 29 26 32 27 34 7 34 -24 0
-38 26 -21 43 6 6 11 22 11 35 0 37 28 75 73 99 48 25 91 28 126 10z m-2879
-567 c0 -22 -4 -40 -10 -40 -5 0 -10 18 -10 40 0 22 5 40 10 40 6 0 10 -18 10
-40z m2575 -452 c-7 -24 -15 -42 -59 -144 -14 -34 -26 -72 -26 -86 0 -13 -4
-28 -10 -34 -5 -5 -11 -36 -12 -68 -3 -51 -6 -59 -31 -74 -27 -17 -29 -16 -47
8 -11 14 -27 40 -35 58 -11 22 -23 32 -38 32 -13 0 -32 7 -44 15 -16 11 -28
13 -48 5 -40 -15 -46 -12 -33 18 17 38 45 64 108 102 30 17 80 47 110 66 30
19 67 34 82 34 21 0 28 5 28 19 0 21 36 71 51 71 6 0 7 -10 4 -22z m-105 -2
c0 -17 -60 -57 -74 -49 -5 3 6 19 25 34 38 32 49 35 49 15z m-1978 -96 c15 0
18 -9 18 -55 0 -73 -17 -71 -52 5 -34 73 -35 86 -6 66 12 -9 30 -16 40 -16z
m1692 -113 c-4 -12 -22 -46 -40 -75 -19 -29 -34 -57 -34 -62 0 -6 -4 -10 -10
-10 -6 0 -7 18 -3 46 6 44 5 46 -18 42 -15 -2 -25 -11 -27 -23 -3 -22 -19 -58
-41 -93 l-14 -23 -15 22 c-8 12 -25 42 -37 65 -25 50 -23 54 45 79 25 9 59 24
75 33 30 16 103 32 118 24 4 -2 5 -13 1 -25z m-707 -78 c4 -15 8 -17 14 -8 15
25 20 2 8 -42 -6 -24 -17 -73 -25 -109 -18 -82 -45 -140 -64 -140 -8 0 -27 13
-43 29 -23 24 -26 32 -18 57 5 16 17 57 27 90 16 58 53 124 54 97 0 -7 -9 -36
-20 -65 -26 -68 -27 -141 -3 -136 12 2 21 21 30 63 8 33 18 75 24 93 9 26 8
37 -4 50 -15 18 -12 42 5 42 5 0 12 -9 15 -21z m670 -81 c-3 -7 -5 -2 -5 12 0
14 2 19 5 13 2 -7 2 -19 0 -25z m-119 -157 c-10 -13 -18 -20 -18 -15 0 5 -5 1
-11 -8 -14 -26 -39 -22 -39 5 1 21 10 41 55 114 l20 33 6 -53 c4 -41 2 -57
-13 -76z m352 64 c0 -8 -4 -15 -10 -15 -5 0 -7 7 -4 15 4 8 8 15 10 15 2 0 4
-7 4 -15z m-40 -14 c0 -6 -4 -13 -10 -16 -5 -3 -10 1 -10 9 0 9 5 16 10 16 6
0 10 -4 10 -9z m-150 -70 c0 -4 -6 -13 -12 -19 -10 -10 -10 -15 2 -22 11 -7
12 -10 2 -10 -13 0 -51 38 -52 52 0 9 31 16 48 10 6 -2 12 -7 12 -11z m30 -1
c0 -5 -4 -10 -10 -10 -5 0 -10 5 -10 10 0 6 5 10 10 10 6 0 10 -4 10 -10z
m-210 -71 c0 -5 7 -9 15 -9 9 0 15 -9 15 -23 0 -16 -18 -39 -57 -72 -55 -48
-56 -48 -49 -19 4 16 10 45 15 64 11 52 29 80 46 74 8 -4 15 -10 15 -15z
m-563 -84 c-23 -19 -43 -51 -65 -105 -10 -23 -11 -22 -11 17 -1 33 5 50 29 76
17 19 30 38 30 41 0 4 8 19 18 34 l17 26 3 -34 c3 -27 -2 -39 -21 -55z m-90
-237 c-3 -8 -6 -5 -6 6 -1 11 2 17 5 13 3 -3 4 -12 1 -19z m91 -20 c-2 -15
-11 -24 -25 -26 -25 -4 -31 16 -11 36 20 20 40 14 36 -10z m-148 -37 c0 -25
-6 -30 -67 -53 -107 -40 -137 -48 -171 -48 -46 0 -41 26 11 50 79 36 212 86
220 83 4 -3 7 -17 7 -32z m-637 -388 c-3 -27 -14 -64 -23 -83 -22 -45 -42
-128 -35 -141 8 -12 -15 -80 -34 -101 -9 -9 -36 -20 -60 -24 l-44 -7 7 53 c4
29 15 78 25 109 10 31 23 77 30 104 17 74 49 115 96 126 22 5 41 9 42 10 2 1
0 -20 -4 -46z m1640 35 c12 -9 19 -32 22 -78 3 -36 8 -91 11 -122 4 -31 4 -63
1 -72 -8 -20 -37 -11 -74 22 -16 15 -46 36 -66 47 -20 11 -37 21 -37 23 0 2
16 36 35 76 19 40 35 78 35 85 0 6 10 16 23 21 30 12 31 12 50 -2z m312 -35
c24 -25 26 -34 21 -78 -3 -27 -6 -79 -6 -115 0 -36 -4 -71 -9 -79 -6 -10 -29
-15 -70 -15 -33 -1 -66 -6 -73 -13 -16 -17 -40 -16 -63 1 -18 13 -17 17 20 92
21 44 41 81 45 84 3 3 14 18 24 34 18 29 18 29 -5 47 -19 15 -22 22 -13 36 24
39 95 42 129 6z m-2165 1 c0 -4 -25 -39 -55 -79 -30 -41 -55 -78 -55 -84 0 -6
-3 -11 -7 -11 -5 0 -21 -20 -36 -45 -16 -25 -33 -45 -38 -45 -13 0 -58 -52
-59 -67 0 -7 -6 -13 -14 -13 -7 0 -26 -16 -40 -35 -15 -19 -34 -35 -42 -35 -9
0 -14 11 -14 35 0 19 4 35 8 35 9 0 29 67 38 128 4 23 10 42 15 42 5 0 9 9 9
20 0 11 7 23 15 26 8 4 15 16 15 29 0 32 19 44 102 65 40 10 84 23 98 28 28
12 60 15 60 6z m1964 -10 c9 -24 7 -28 -9 -14 -17 14 -20 30 -6 30 5 0 12 -7
15 -16z m-1094 -130 c0 -27 -4 -43 -10 -39 -17 11 -11 85 7 85 2 0 3 -21 3
-46z m150 -4 c0 -4 24 -18 53 -30 54 -24 136 -30 209 -16 35 6 38 5 43 -21 16
-75 31 -111 62 -143 38 -42 41 -55 12 -70 -17 -9 -31 -7 -72 12 -48 21 -64 23
-209 21 l-158 -1 -2 56 c-5 133 15 218 47 206 8 -4 15 -10 15 -14z m-285 -167
c-7 -136 -8 -138 -67 -176 -17 -10 -47 -17 -79 -17 -40 0 -60 -6 -86 -26 -51
-39 -99 -56 -139 -48 -18 3 -34 11 -34 16 0 6 7 8 15 5 11 -5 13 0 11 21 -2
15 -1 21 1 15 3 -9 11 -8 29 4 14 9 23 22 20 29 -6 16 23 37 75 53 52 17 189
157 189 193 0 13 49 57 64 58 5 0 6 -55 1 -127z m115 -43 c0 -53 -4 -90 -10
-90 -11 0 -14 162 -3 173 12 13 13 7 13 -83z m697 84 c-3 -3 -12 -4 -19 -1 -8
3 -5 6 6 6 11 1 17 -2 13 -5z m-1697 -172 c0 -4 -12 -16 -27 -27 -38 -29 -75
-65 -100 -101 -17 -24 -20 -34 -10 -43 9 -10 5 -19 -23 -42 -48 -41 -70 -39
-63 5 6 40 -30 102 -66 111 -13 3 -20 9 -17 12 12 12 81 33 110 33 16 0 38 8
49 18 10 9 42 22 71 28 67 15 76 15 76 6z m1055 -149 c12 -111 -26 -67 -45 52
-14 88 -12 94 14 50 14 -24 27 -65 31 -102z m1702 55 c-3 -7 -5 -2 -5 12 0 14
2 19 5 13 2 -7 2 -19 0 -25z m-1262 -107 c11 -5 45 -19 75 -32 72 -31 159 -31
214 -1 46 25 72 17 82 -26 16 -71 38 -140 55 -174 11 -21 19 -45 19 -55 0 -22
-83 -72 -161 -98 -30 -10 -70 -25 -89 -35 -54 -27 -163 -33 -206 -12 -34 16
-36 16 -45 -1 -14 -25 -44 -21 -59 8 -16 29 -7 43 15 25 9 -7 18 -10 21 -7 3
3 18 2 33 -3 39 -11 111 19 89 37 -8 7 -52 17 -99 23 -165 20 -440 83 -447
102 -5 12 -22 10 -22 -3 0 -21 58 -68 93 -74 39 -8 40 -10 31 -67 -8 -44 -23
-52 -16 -10 3 22 -2 32 -22 46 -26 16 -26 16 -26 -9 0 -43 -17 -65 -51 -65
-24 0 -30 -4 -25 -16 3 -9 6 -20 6 -25 0 -5 8 -9 17 -9 33 0 3 -12 -66 -26
-53 -11 -81 -12 -109 -4 -45 12 -132 13 -132 1 0 -45 162 -68 350 -49 l65 6
-40 -19 c-83 -40 -454 -14 -504 35 -14 14 -14 18 -1 26 8 5 18 6 22 4 12 -7
48 6 48 17 0 5 -12 14 -27 20 -78 32 -73 21 -73 145 0 114 13 209 31 220 6 3
24 -5 42 -18 18 -13 58 -32 90 -41 31 -10 66 -27 77 -39 11 -12 25 -18 34 -15
41 16 -1 58 -98 101 -74 33 -73 52 2 60 31 4 78 14 104 22 l47 15 133 -51 c73
-28 155 -60 182 -71 27 -10 56 -19 65 -19 10 0 22 -5 28 -11 7 -7 20 -9 29 -5
17 7 17 8 -2 19 -12 7 -43 27 -70 44 -27 18 -64 35 -82 39 -18 3 -35 10 -38
15 -3 5 -15 10 -27 10 -28 2 43 14 198 33 66 9 134 19 150 24 30 9 53 7 90 -7z
m-1935 -55 c-15 -15 -12 -26 5 -20 8 4 15 1 15 -5 0 -15 -25 -14 -38 2 -6 7
-9 23 -5 35 4 18 8 20 20 11 9 -9 11 -15 3 -23z m2378 -342 c-3 -27 0 -38 14
-45 26 -14 22 -35 -11 -69 -43 -46 -131 -73 -211 -67 -35 3 -66 10 -68 16 -2
6 -15 11 -29 11 -43 0 -153 -23 -153 -32 0 -4 48 -8 106 -8 80 0 105 -3 102
-12 -6 -19 -103 -49 -175 -55 -69 -6 -63 -12 -78 80 l-6 37 58 0 c33 1 69 7
83 16 23 14 21 14 -40 8 -91 -10 -105 -10 -108 1 -7 22 158 44 187 26 10 -7
32 -1 70 19 31 15 67 32 81 37 14 6 36 15 50 20 14 6 45 19 70 31 61 28 63 27
58 -14z m-1176 -232 c39 -6 75 -18 85 -27 18 -18 49 -17 148 6 75 17 99 17
103 -3 5 -27 -48 -47 -143 -54 -84 -7 -135 4 -135 28 0 5 6 6 13 2 9 -5 9 -4
1 5 -9 9 -21 10 -49 2 -41 -11 -181 1 -215 19 -22 12 -27 36 -9 42 12 4 95 -4
201 -20z m145 -18 c-3 -3 -12 -4 -19 -1 -8 3 -5 6 6 6 11 1 17 -2 13 -5z"/>
<path d="M3284 5175 c-16 -24 -20 -25 -79 -19 -91 9 -134 -18 -135 -88 0 -20
-4 -40 -10 -43 -5 -3 -10 -15 -10 -27 0 -11 -7 -32 -16 -48 -29 -49 4 -79 49
-45 13 9 35 12 72 8 81 -8 105 11 105 82 0 44 -4 57 -20 67 -11 7 -20 18 -20
25 0 17 -55 17 -69 0 -32 -40 -20 -117 19 -117 24 0 26 15 4 24 -10 4 -14 16
-12 38 2 27 8 34 30 36 56 7 78 -78 31 -122 -24 -23 -29 -24 -52 -11 -14 7
-34 16 -43 19 -11 3 -19 21 -23 50 -13 85 12 126 74 126 22 0 44 -6 51 -15 11
-13 18 -9 51 25 22 22 39 45 39 50 0 18 -19 10 -36 -15z m-204 -235 c0 -5 -4
-10 -9 -10 -6 0 -13 5 -16 10 -3 6 1 10 9 10 9 0 16 -4 16 -10z"/>
<path d="M2527 5123 c-27 -7 -19 -57 10 -61 24 -4 48 30 39 54 -5 14 -16 16
-49 7z"/>
<path d="M3817 5103 c-13 -12 -7 -43 7 -43 19 0 28 14 20 34 -7 17 -16 20 -27
9z"/>
<path d="M2500 4979 c-10 -17 -9 -24 3 -37 23 -22 49 -8 45 25 -4 35 -33 42
-48 12z"/>
<path d="M3824 4985 c-15 -10 -16 -16 -7 -26 14 -15 43 -5 43 15 0 22 -15 27
-36 11z"/>
<path d="M3804 4865 c-9 -23 3 -45 25 -45 23 0 35 28 20 46 -15 18 -38 18 -45
-1z"/>
<path d="M2527 4853 c-10 -10 -8 -51 2 -57 13 -9 39 3 45 21 11 27 -28 56 -47
36z"/>
<path d="M3586 4591 c-29 -19 -52 -19 -41 0 4 5 0 9 -8 9 -12 0 -57 -43 -57
-55 0 -3 -9 -15 -20 -27 -33 -36 -24 -64 10 -33 15 13 19 13 38 -5 21 -20 22
-20 31 -1 18 32 78 53 155 54 39 0 80 -1 91 -4 12 -2 20 2 23 12 2 11 -6 18
-25 22 -41 8 -154 -4 -185 -19 -15 -8 -35 -14 -45 -13 -10 0 -13 3 -5 6 6 2
12 11 12 19 0 8 8 14 18 14 18 1 52 22 52 34 0 11 -14 7 -44 -13z"/>
<path d="M2590 4555 c0 -3 14 -14 32 -25 27 -16 29 -20 14 -26 -9 -4 -28 -1
-41 6 -13 7 -29 10 -37 8 -12 -4 73 -48 94 -48 18 0 132 -42 152 -56 11 -8 24
-14 29 -14 14 0 -104 94 -138 110 -16 8 -42 22 -57 32 -25 17 -48 23 -48 13z"/>
<path d="M4242 4390 c-15 -25 -16 -38 0 -22 17 17 28 15 28 -5 0 -9 3 -14 6
-10 8 8 -4 57 -14 57 -4 0 -13 -9 -20 -20z"/>
<path d="M3761 4319 c-115 -46 -151 -74 -151 -117 l0 -34 30 32 c24 26 32 29
49 21 11 -6 23 -16 26 -21 9 -15 61 -12 75 5 7 8 28 15 47 15 19 0 48 7 65 16
17 9 41 14 53 11 17 -3 22 0 18 10 -6 16 -42 36 -104 57 -50 18 -74 19 -108 5z
m-21 -53 c0 -3 -4 -8 -10 -11 -5 -3 -10 -1 -10 4 0 6 5 11 10 11 6 0 10 -2 10
-4z"/>
<path d="M2477 4165 c-47 -18 -94 -50 -108 -76 -10 -19 -9 -19 26 -5 l36 15
15 -36 c12 -26 18 -33 27 -24 6 6 29 11 50 11 22 0 61 8 88 17 58 21 79 13 94
-35 12 -40 25 -41 25 -3 0 44 -67 124 -117 139 -51 15 -88 14 -136 -3z"/>
<path d="M4010 4110 c0 -5 5 -10 11 -10 5 0 7 5 4 10 -3 6 -8 10 -11 10 -2 0
-4 -4 -4 -10z"/>
<path d="M3886 4083 c-4 -4 -44 -10 -89 -13 -66 -4 -82 -8 -85 -22 -4 -20 35
-58 60 -58 40 0 148 43 153 61 10 31 -18 53 -39 32z"/>
<path d="M4022 4038 c-4 -81 -96 -138 -225 -138 -55 0 -70 4 -103 29 -42 29
-68 63 -77 96 -3 14 -5 10 -6 -10 0 -17 4 -36 11 -43 8 -8 8 -15 -2 -26 -7 -9
-10 -22 -7 -30 8 -21 129 -56 191 -56 72 0 207 49 239 86 22 25 23 30 9 35
-11 4 -19 22 -23 50 l-6 44 -1 -37z"/>
<path d="M2343 4028 c-7 -19 -13 -67 -13 -108 0 -63 4 -78 26 -107 14 -18 30
-33 36 -33 6 0 4 8 -5 18 -10 10 -17 26 -17 35 0 9 -4 18 -9 22 -17 10 -24 95
-11 134 16 51 10 87 -7 39z"/>
<path d="M2562 3945 c-30 -14 -62 -25 -72 -25 -10 0 -28 -8 -40 -18 -18 -14
-20 -22 -11 -43 14 -37 40 -40 118 -13 74 25 113 60 113 100 0 20 -5 24 -27
24 -16 0 -52 -11 -81 -25z"/>
<path d="M3200 3766 c0 -2 7 -9 15 -16 13 -11 14 -10 9 4 -5 14 -24 23 -24 12z"/>
<path d="M4029 3585 c18 -8 41 -15 50 -14 22 1 -39 28 -64 28 -14 0 -9 -4 14
-14z"/>
<path d="M2299 3511 c-25 -14 -58 -36 -73 -48 -48 -39 -8 -25 57 19 74 49 71
47 66 52 -2 2 -24 -8 -50 -23z"/>
<path d="M3508 3511 c-6 -15 -107 -61 -136 -61 -15 0 -33 -5 -39 -11 -6 -6
-52 -9 -124 -6 -116 4 -191 18 -197 36 -2 6 -10 11 -17 11 -8 0 -21 7 -29 16
-19 18 -21 6 -3 -16 18 -24 80 -49 155 -65 117 -25 158 -21 331 36 34 11 81
46 81 61 0 11 -17 10 -22 -1z"/>
<path d="M3900 3516 c0 -2 7 -7 16 -10 8 -3 12 -2 9 4 -6 10 -25 14 -25 6z"/>
<path d="M3990 3459 c14 -11 33 -27 43 -35 9 -7 23 -14 30 -14 17 0 -52 57
-77 64 -19 4 -18 3 4 -15z"/>
<path d="M2302 3391 c-54 -43 -70 -61 -53 -61 6 0 11 5 11 10 0 6 6 10 13 10
15 1 92 68 85 75 -3 3 -28 -12 -56 -34z"/>
<path d="M2318 3301 c-22 -20 -28 -31 -17 -31 17 0 66 47 57 56 -4 3 -21 -8
-40 -25z"/>
<path d="M2070 4225 c0 -8 4 -15 10 -15 5 0 7 7 4 15 -4 8 -8 15 -10 15 -2 0
-4 -7 -4 -15z"/>
<path d="M1856 3776 c-9 -15 -16 -37 -14 -49 3 -19 6 -16 21 16 22 46 18 70
-7 33z"/>
<path d="M1840 3487 c0 -19 21 -27 68 -27 l37 1 -35 13 c-19 7 -43 17 -52 21
-13 5 -18 3 -18 -8z"/>
<path d="M4493 4166 c-27 -28 -31 -46 -5 -24 9 8 25 18 35 21 9 4 17 11 17 17
0 18 -24 11 -47 -14z"/>
<path d="M4553 4005 c0 -33 2 -45 4 -27 2 18 2 45 0 60 -2 15 -4 0 -4 -33z"/>
<path d="M4372 3960 c-17 -111 -21 -200 -11 -225 4 -12 8 17 8 76 1 53 6 110
12 127 6 16 9 47 7 69 -2 30 -6 20 -16 -47z"/>
<path d="M4522 3856 c-15 -33 -11 -44 7 -22 7 8 11 23 9 32 -2 14 -6 11 -16
-10z"/>
<path d="M3848 773 c7 -3 16 -2 19 1 4 3 -2 6 -13 5 -11 0 -14 -3 -6 -6z"/>
<path d="M3755 745 c-23 -11 -25 -14 -10 -14 11 0 31 6 45 14 32 18 5 18 -35
0z"/>
<path d="M1990 6388 c0 -18 23 -78 40 -108 16 -28 53 -143 76 -237 9 -35 20
-63 24 -63 12 0 90 110 90 126 0 15 34 36 44 27 3 -3 6 -37 6 -75 0 -37 4 -68
8 -68 5 0 40 22 78 50 38 27 82 58 98 67 15 10 54 38 85 63 72 58 139 110 226
173 l70 52 -43 3 c-37 3 -50 -3 -114 -51 -107 -80 -237 -164 -293 -190 -36
-17 -43 -7 -44 64 -1 73 -19 77 -77 17 -27 -29 -60 -66 -74 -83 -14 -18 -30
-30 -37 -28 -6 2 -19 30 -28 61 -9 31 -21 66 -25 77 -5 11 -18 46 -31 78 -20
51 -26 57 -51 57 -16 0 -28 -5 -28 -12z"/>
<path d="M3124 6391 c5 -8 -57 -137 -75 -155 -26 -27 13 -19 114 22 16 7 47
15 70 18 23 4 94 26 157 50 63 23 127 46 143 49 15 4 30 11 33 16 7 13 -160
11 -172 -1 -15 -15 -198 -59 -207 -50 -5 4 -4 17 2 28 16 30 15 32 -30 32 -22
0 -38 -4 -35 -9z"/>
<path d="M4342 5140 c0 -14 2 -19 5 -12 2 6 2 18 0 25 -3 6 -5 1 -5 -13z"/>
<path d="M0 482 c0 -330 3 -482 10 -482 8 0 9 147 4 478 -4 262 -8 479 -10
481 -2 2 -4 -212 -4 -477z"/>
<path d="M2860 10 c-11 -7 -6 -10 20 -10 26 0 31 3 20 10 -8 5 -17 10 -20 10
-3 0 -12 -5 -20 -10z"/>
</g>
</svg>
